<?xml version="1.0" encoding="UTF-8" standalone="no"?>
<svg width="19px" height="22px" viewBox="0 0 19 22" version="1.1" xmlns="http://www.w3.org/2000/svg" xmlns:xlink="http://www.w3.org/1999/xlink">
    <!-- Generator: Sketch 3.8.3 (29802) - http://www.bohemiancoding.com/sketch -->
    <title>icon-logo-small-white</title>
    <desc>Created with Sketch.</desc>
    <defs></defs>
    <g id="Symbols" stroke="none" stroke-width="1" fill="none" fill-rule="evenodd">
        <g id="icon-logo-small-white" stroke="#FFFFFF">
            <path d="M17.2390804,20.6216278 C18.1143567,21.3037935 18.4625069,21.0391867 18.0138505,20.0241758 L9.60476038,1 L1.19567026,20.0241758 C0.748287619,21.0363051 1.09371547,21.3049224 1.97044037,20.6216278 L9.60476038,14.6716548 L17.2390804,20.6216278 L17.2390804,20.6216278 Z M8.79702167,14.042126 L5.9136318,11.7948935 L2.84225916,18.7048669 L8.79702167,14.042126 L8.79702167,14.042126 Z M10.4121353,14.0424095 L13.2986764,11.792721 L16.3787295,18.7151833 L10.4121353,14.0424095 L10.4121353,14.0424095 Z M9.60446392,13.4098768 L6.33418325,10.8487369 L9.60476038,3.49059333 L12.8777901,10.8467734 L9.60446392,13.4098768 L9.60446392,13.4098768 Z" id="50" stroke-width="0.5" fill="#FFFFFF"></path>
            <path d="M9.6,3 L9.6,14" id="Path-180" stroke-width="1.25"></path>
        </g>
    </g>
</svg>